<?xml version="1.0" encoding="UTF-8" standalone="no"?>
<!-- Created with Inkscape (http://www.inkscape.org/) -->

<svg
   width="100mm"
   height="100mm"
   viewBox="0 0 100 100"
   version="1.1"
   id="svg1"
   xmlns="http://www.w3.org/2000/svg"
   xmlns:svg="http://www.w3.org/2000/svg">
  <defs
     id="defs1" />
  <g
     id="layer1">
    <path
       id="path1"
       style="fill:#fc5d5b;fill-opacity:1;stroke-width:0.375175;stroke-linecap:square;stroke-linejoin:round"
       d="M 65.62412,22.402408 A 31.65269,31.65269 0 0 0 24.632181,31.38566 l 12.776169,7.221084 a 17.003512,17.003512 0 0 1 21.007952,-3.450567 17.003512,17.003512 0 0 1 7.878896,19.777396 L 100,73.9835 78.450541,35.999765 A 31.65269,31.65269 0 0 0 76.600976,32.73899 l -0.05263,-0.09254 -0.0041,0.0078 A 31.65269,31.65269 0 0 0 65.624891,22.402684 Z M 0,25.877386 22.29925,65.183629 22.3178,65.150739 A 31.65269,31.65269 0 0 0 34.475298,77.514615 31.65269,31.65269 0 0 0 75.614741,68.614722 L 62.691052,61.310298 A 17.003512,17.003512 0 0 1 41.68332,64.761594 17.003512,17.003512 0 0 1 33.804204,44.983464 Z" />
  </g>
</svg>
